<?xml version="1.0" ?><!DOCTYPE svg  PUBLIC '-//W3C//DTD SVG 1.1//EN'  'http://www.w3.org/Graphics/SVG/1.1/DTD/svg11.dtd'><svg enable-background="new 0 0 50 50" id="Layer_1" version="1.1" viewBox="0 0 50 50" xml:space="preserve" xmlns="http://www.w3.org/2000/svg" xmlns:xlink="http://www.w3.org/1999/xlink"><g><g><path d="M38.8351,22.46l0.09-0.0503V21.29l-0.19-0.1099l0.19-0.1104v-1.1299l-0.19-0.1099l0.19-0.1099v-1.1201    l-0.19-0.1104l0.19-0.1099v-1.1201l-0.19-0.1099l0.19-0.1099V17l7.0699-4.0801V11.02L31.7051,2.71l-27.22,15.7202v1.8896    l9.93,5.77v0.1001l-13.41,7.7402v2.25l19.12,11.1099l28.87-16.6802v-2.2397L38.8351,22.46z M37.1051,19.8301l-0.19,0.1099v1.1299    l0.19,0.1104l-0.19,0.1099v0.0601l-0.65-0.3799V20.27c0-0.0303-0.02-0.0601-0.06-0.0801l-1.4-0.8101l2.11-1.21v0.21l0.19,0.1099    l-0.19,0.1104v1.1201L37.1051,19.8301z" fill="#BAC1CE"/><g><g><g enable-background="new    "><g><polygon fill="#474B59" points="1.0035,33.9295 1.0099,36.1781 20.1224,47.285 20.116,45.0365       "/></g><g><polygon fill="#3F434F" points="20.116,45.0365 20.1224,47.285 48.9965,30.6146 48.9901,28.366       "/></g><g><polygon fill="#5B5E71" points="1.0035,33.9295 20.116,45.0365 48.9901,28.366 29.8776,17.2591       "/></g></g></g><g><g><g enable-background="new    "><g><path d="M27.0558,35.7285v1.1949c0,0.3888-0.2566,0.7772-0.7698,1.0779c-1.0337,0.601-2.7126,0.601-3.7537,0         l-9.978-5.7624c-0.5279-0.3007-0.7845-0.6966-0.7845-1.0926v-1.1949c0,0.3959,0.2639,0.7918,0.7845,1.0922l9.978,5.7624         c1.041,0.6014,2.72,0.6014,3.7537,0C26.7992,36.5057,27.0558,36.1169,27.0558,35.7285z" fill="#CAD0DD"/></g><g><path d="M26.2738,34.6337c1.0391,0.6,1.0448,1.5727,0.0124,2.1727c-1.0324,0.6-2.7121,0.6-3.7513,0.0001         l-9.9796-5.7617c-1.0391-0.6-1.0446-1.5729-0.0121-2.1729s2.7119-0.5999,3.751,0.0001L26.2738,34.6337z" fill="#E4E8F4"/></g></g></g><g><g><g><g enable-background="new    "><g><polygon fill="#30596D" points="16.4261,29.6031 16.4247,30.7269 15.4228,31.3091 15.4242,30.1854          "/></g><g><polygon fill="#37617B" points="15.4242,30.1854 15.4228,31.3091 14.4143,30.7268 14.4157,29.6031          "/></g><g><polygon fill="#416E84" points="16.4261,29.6031 15.4242,30.1854 14.4157,29.6031 15.4175,29.0209          "/></g></g></g><g><g enable-background="new    "><g><polygon fill="#30596D" points="16.4261,28.2605 16.4247,29.3843 15.4228,29.9665 15.4242,28.8427          "/></g><g><polygon fill="#37617B" points="15.4242,28.8427 15.4228,29.9665 14.4143,29.3842 14.4157,28.2605          "/></g><g><polygon fill="#416E84" points="16.4261,28.2605 15.4242,28.8427 14.4157,28.2605 15.4175,27.6783          "/></g></g></g><g><g enable-background="new    "><g><polygon fill="#30596D" points="16.4261,26.9179 16.4247,28.0417 15.4228,28.6239 15.4242,27.5001          "/></g><g><polygon fill="#37617B" points="15.4242,27.5001 15.4228,28.6239 14.4143,28.0416 14.4157,26.9179          "/></g><g><polygon fill="#416E84" points="16.4261,26.9179 15.4242,27.5001 14.4157,26.9179 15.4175,26.3357          "/></g></g></g><g><g enable-background="new    "><g><polygon fill="#30596D" points="16.4261,25.5753 16.4247,26.6991 15.4228,27.2813 15.4242,26.1575          "/></g><g><polygon fill="#37617B" points="15.4242,26.1575 15.4228,27.2813 14.4143,26.699 14.4157,25.5753          "/></g><g><polygon fill="#416E84" points="16.4261,25.5753 15.4242,26.1575 14.4157,25.5753 15.4175,24.993          "/></g></g></g><g><g enable-background="new    "><g><polygon fill="#30596D" points="16.4261,24.2327 16.4247,25.3564 15.4228,25.9387 15.4242,24.8149          "/></g><g><polygon fill="#37617B" points="15.4242,24.8149 15.4228,25.9387 14.4143,25.3564 14.4157,24.2326          "/></g><g><polygon fill="#416E84" points="16.4261,24.2327 15.4242,24.8149 14.4157,24.2326 15.4175,23.6504          "/></g></g></g><g><g enable-background="new    "><g><polygon fill="#30596D" points="16.4261,22.8901 16.4247,24.0138 15.4228,24.596 15.4242,23.4723          "/></g><g><polygon fill="#37617B" points="15.4242,23.4723 15.4228,24.596 14.4143,24.0138 14.4157,22.89          "/></g><g><polygon fill="#416E84" points="16.4261,22.8901 15.4242,23.4723 14.4157,22.89 15.4175,22.3078          "/></g></g></g><g><g enable-background="new    "><g><polygon fill="#30596D" points="16.4261,21.5475 16.4247,22.6712 15.4228,23.2534 15.4242,22.1297          "/></g><g><polygon fill="#37617B" points="15.4242,22.1297 15.4228,23.2534 14.4143,22.6712 14.4157,21.5474          "/></g><g><polygon fill="#416E84" points="16.4261,21.5475 15.4242,22.1297 14.4157,21.5474 15.4175,20.9652          "/></g></g></g><g><g enable-background="new    "><g><polygon fill="#30596D" points="16.4261,20.2049 16.4247,21.3286 15.4228,21.9108 15.4242,20.7871          "/></g><g><polygon fill="#37617B" points="15.4242,20.7871 15.4228,21.9108 14.4143,21.3286 14.4157,20.2048          "/></g><g><polygon fill="#416E84" points="16.4261,20.2049 15.4242,20.7871 14.4157,20.2048 15.4175,19.6226          "/></g></g></g><g><g enable-background="new    "><g><polygon fill="#30596D" points="16.4261,18.8623 16.4247,19.986 15.4228,20.5682 15.4242,19.4445          "/></g><g><polygon fill="#37617B" points="15.4242,19.4445 15.4228,20.5682 14.4143,19.9859 14.4157,18.8622          "/></g><g><polygon fill="#416E84" points="16.4261,18.8623 15.4242,19.4445 14.4157,18.8622 15.4175,18.28          "/></g></g></g></g><g><g><g enable-background="new    "><g><polygon fill="#30596D" points="24.554,34.2375 24.5526,35.3612 23.5508,35.9434 23.5522,34.8197          "/></g><g><polygon fill="#37617B" points="23.5522,34.8197 23.5508,35.9434 22.5422,35.3612 22.5436,34.2374          "/></g><g><polygon fill="#416E84" points="24.554,34.2375 23.5522,34.8197 22.5436,34.2374 23.5455,33.6552          "/></g></g></g><g><g enable-background="new    "><g><polygon fill="#30596D" points="24.554,32.8949 24.5526,34.0186 23.5508,34.6008 23.5522,33.4771          "/></g><g><polygon fill="#37617B" points="23.5522,33.4771 23.5508,34.6008 22.5422,34.0186 22.5436,32.8948          "/></g><g><polygon fill="#416E84" points="24.554,32.8949 23.5522,33.4771 22.5436,32.8948 23.5455,32.3126          "/></g></g></g><g><g enable-background="new    "><g><polygon fill="#30596D" points="24.554,31.5523 24.5526,32.676 23.5508,33.2582 23.5522,32.1345          "/></g><g><polygon fill="#37617B" points="23.5522,32.1345 23.5508,33.2582 22.5422,32.6759 22.5436,31.5522          "/></g><g><polygon fill="#416E84" points="24.554,31.5523 23.5522,32.1345 22.5436,31.5522 23.5455,30.97          "/></g></g></g><g><g enable-background="new    "><g><polygon fill="#30596D" points="24.554,30.2097 24.5526,31.3334 23.5508,31.9156 23.5522,30.7919          "/></g><g><polygon fill="#37617B" points="23.5522,30.7919 23.5508,31.9156 22.5422,31.3333 22.5436,30.2096          "/></g><g><polygon fill="#416E84" points="24.554,30.2097 23.5522,30.7919 22.5436,30.2096 23.5455,29.6274          "/></g></g></g><g><g enable-background="new    "><g><polygon fill="#30596D" points="24.554,28.8671 24.5526,29.9908 23.5508,30.573 23.5522,29.4493          "/></g><g><polygon fill="#37617B" points="23.5522,29.4493 23.5508,30.573 22.5422,29.9907 22.5436,28.867          "/></g><g><polygon fill="#416E84" points="24.554,28.8671 23.5522,29.4493 22.5436,28.867 23.5455,28.2848          "/></g></g></g><g><g enable-background="new    "><g><polygon fill="#30596D" points="24.554,27.5245 24.5526,28.6482 23.5508,29.2304 23.5522,28.1067          "/></g><g><polygon fill="#37617B" points="23.5522,28.1067 23.5508,29.2304 22.5422,28.6481 22.5436,27.5244          "/></g><g><polygon fill="#416E84" points="24.554,27.5245 23.5522,28.1067 22.5436,27.5244 23.5455,26.9422          "/></g></g></g><g><g enable-background="new    "><g><polygon fill="#30596D" points="24.554,26.1818 24.5526,27.3056 23.5508,27.8878 23.5522,26.7641          "/></g><g><polygon fill="#37617B" points="23.5522,26.7641 23.5508,27.8878 22.5422,27.3055 22.5436,26.1818          "/></g><g><polygon fill="#416E84" points="24.554,26.1818 23.5522,26.7641 22.5436,26.1818 23.5455,25.5996          "/></g></g></g><g><g enable-background="new    "><g><polygon fill="#30596D" points="24.554,24.8392 24.5526,25.963 23.5508,26.5452 23.5522,25.4214          "/></g><g><polygon fill="#37617B" points="23.5522,25.4214 23.5508,26.5452 22.5422,25.9629 22.5436,24.8392          "/></g><g><polygon fill="#416E84" points="24.554,24.8392 23.5522,25.4214 22.5436,24.8392 23.5455,24.257          "/></g></g></g><g><g enable-background="new    "><g><polygon fill="#30596D" points="24.554,23.4966 24.5526,24.6204 23.5508,25.2026 23.5522,24.0788          "/></g><g><polygon fill="#37617B" points="23.5522,24.0788 23.5508,25.2026 22.5422,24.6203 22.5436,23.4966          "/></g><g><polygon fill="#416E84" points="24.554,23.4966 23.5522,24.0788 22.5436,23.4966 23.5455,22.9144          "/></g></g></g></g></g><g><g><g><g><g enable-background="new    "><g><path d="M21.9356,33.0371l-0.0011,0.4873c0,0.0433-0.0285,0.0877-0.0865,0.1218l-1.3564,0.7881            c-0.1162,0.0672-0.3075,0.0672-0.4248,0l-2.8779-1.6627c-0.0592-0.0341-0.0888-0.0786-0.0888-0.123l0.0011-0.4873            c0,0.0444,0.0296,0.09,0.0877,0.1241l2.879,1.6616c0.1173,0.0672,0.3086,0.0672,0.4248,0l1.3564-0.7881            C21.906,33.126,21.9356,33.0816,21.9356,33.0371z" fill="#474B59"/></g><g><path d="M21.8472,32.9133c0.1171,0.0676,0.1177,0.1784,0.0014,0.246l-1.3559,0.788            c-0.1163,0.0676-0.3077,0.0676-0.4247,0l-2.8786-1.662c-0.1171-0.0676-0.1177-0.1784-0.0014-0.246l1.3559-0.788            c0.1163-0.0676,0.3076-0.0676,0.4247,0L21.8472,32.9133z" fill="#5B5E71"/></g></g></g><g><g enable-background="new    "><g><path d="M20.1476,28.7152l-2.8779-1.6627c-0.0376-0.0206-0.0558-0.049-0.0558-0.0764v5.1428            c0,0.0285,0.0182,0.0559,0.0547,0.0775l2.879,1.6616c0.0287,0.0169,0.0654,0.0251,0.1031,0.0284l0.0011-5.1428            C20.2139,28.7402,20.1768,28.732,20.1476,28.7152z" fill="#F9BB4A"/><path d="M21.7671,27.927l-1.3552,0.7881c-0.0437,0.0252-0.1032,0.0335-0.16,0.0284l-0.0011,5.1428            c0.0566,0.005,0.1162-0.0032,0.16-0.0284l1.3552-0.7869c0.0364-0.0217,0.0547-0.049,0.0547-0.0763l0.0011-5.1429            C21.8206,27.8792,21.8035,27.9066,21.7671,27.927z" fill="#EFAC41"/></g><g><path d="M21.7661,27.7744c0.0727,0.042,0.0738,0.1104,0.0008,0.1528l-1.3552,0.7875            c-0.073,0.0424-0.1911,0.042-0.2638,0l-2.8786-1.662c-0.0727-0.042-0.0738-0.1104-0.0008-0.1528l1.3552-0.7875            c0.073-0.0424,0.1911-0.042,0.2638,0L21.7661,27.7744z" fill="#FED57A"/></g></g></g></g><g><path d="M19.8178,28.8809c0.072,0.0416,0.13,0.1421,0.1298,0.2241l-0.0038,1.3416         c-0.0002,0.0827-0.0586,0.116-0.1306,0.0744l-2.3212-1.3402c-0.0714-0.0412-0.13-0.1421-0.1298-0.2248l0.0038-1.3416         c0.0002-0.082,0.0593-0.1149,0.1306-0.0737L19.8178,28.8809z" fill="#576CFB"/></g><g><path d="M19.8178,28.8809c0.072,0.0416,0.13,0.1421,0.1298,0.2241l-0.0038,1.3416         c-0.0002,0.0827-0.0586,0.116-0.1306,0.0744l-2.3212-1.3402c-0.0714-0.0412-0.13-0.1421-0.1298-0.2248l0.0038-1.3416         c0.0002-0.082,0.0593-0.1149,0.1306-0.0737L19.8178,28.8809z" fill="#37617B"/></g><g><g><path d="M17.5564,29.4472c0.0843,0.0487,0.1528,0.1673,0.1525,0.2642          c-0.0003,0.0969-0.0692,0.1351-0.1535,0.0864c-0.0844-0.0487-0.1528-0.1661-0.1525-0.263          C17.4031,29.4378,17.472,29.3985,17.5564,29.4472z" fill="#E63044"/></g><g><path d="M18.0125,29.7106c0.0844,0.0487,0.1518,0.1667,0.1515,0.2636          c-0.0003,0.0969-0.0682,0.1356-0.1525,0.0869c-0.0844-0.0487-0.1528-0.1661-0.1525-0.263          C17.8592,29.7011,17.9281,29.6618,18.0125,29.7106z" fill="#E63044"/></g><g><path d="M18.4676,29.9733c0.0844,0.0487,0.1528,0.1673,0.1525,0.2642          c-0.0003,0.0969-0.0692,0.1351-0.1535,0.0864c-0.0844-0.0487-0.1518-0.1656-0.1515-0.2625          C18.3153,29.9645,18.3832,29.9246,18.4676,29.9733z" fill="#E63044"/></g></g><g><g><g><path d="M18.0639,28.4633c0.0198,0.06,0.0296,0.1244,0.0294,0.1917s-0.0103,0.1202-0.0304,0.1572           c-0.0201,0.0376-0.0477,0.0588-0.0835,0.0638c-0.0352,0.0059-0.0757-0.0046-0.1209-0.0307           c-0.0457-0.0264-0.0861-0.0626-0.1212-0.1091c-0.0357-0.0463-0.0631-0.0992-0.0829-0.1599           c-0.0198-0.06-0.0302-0.1247-0.03-0.192c0.0002-0.0673,0.0109-0.1199,0.031-0.1568           c0.0201-0.0376,0.0477-0.0588,0.0835-0.0638c0.0352-0.0059,0.0757,0.0046,0.1214,0.031           c0.0451,0.0261,0.0855,0.0622,0.1206,0.1088C18.0167,28.3497,18.0442,28.4026,18.0639,28.4633z M17.9376,28.7182           c0.0189-0.0222,0.0284-0.0679,0.0286-0.1366c0.0002-0.0687-0.009-0.1253-0.0277-0.1691           c-0.0192-0.0442-0.0456-0.0756-0.0784-0.0945c-0.0328-0.019-0.0592-0.018-0.0781,0.0042           c-0.0194,0.0218-0.029,0.0676-0.0292,0.1363c-0.0002,0.0687,0.009,0.1253,0.0283,0.1695           c0.0187,0.0432,0.045,0.0752,0.0778,0.0942C17.8917,28.741,17.9182,28.7393,17.9376,28.7182" fill="#FFFFFF"/></g><g><path d="M18.5944,28.7695c0.0204,0.0603,0.0302,0.1247,0.03,0.192           c-0.0002,0.0673-0.0103,0.1202-0.031,0.1568c-0.0201,0.0376-0.0477,0.0588-0.0835,0.0638           c-0.0352,0.0059-0.0757-0.0046-0.1209-0.0306c-0.0457-0.0264-0.0855-0.0622-0.1212-0.1091           c-0.0351-0.0459-0.0631-0.0992-0.0829-0.1599c-0.0198-0.06-0.0296-0.1244-0.0294-0.1917           c0.0002-0.0673,0.0103-0.1202,0.0304-0.1572c0.0201-0.0376,0.0483-0.0584,0.0835-0.0638           c0.0358-0.0056,0.0757,0.0046,0.1214,0.031c0.0451,0.0261,0.0855,0.0622,0.1206,0.1088           C18.5472,28.6559,18.5746,28.7089,18.5944,28.7695z M18.468,29.0244c0.0189-0.0222,0.0284-0.0679,0.0286-0.1366           c0.0002-0.0687-0.009-0.1253-0.0277-0.1691c-0.0192-0.0442-0.045-0.0752-0.0784-0.0945           c-0.0328-0.0189-0.0587-0.0177-0.0781,0.0042c-0.0188,0.0222-0.029,0.0676-0.0292,0.1363           c-0.0002,0.0687,0.0096,0.1256,0.0283,0.1695c0.0193,0.0435,0.045,0.0752,0.0778,0.0942           C18.4228,29.0475,18.4486,29.0456,18.468,29.0244" fill="#FFFFFF"/></g><g><path d="M19.1254,29.0761c0.0198,0.06,0.0296,0.1244,0.0294,0.1917           c-0.0002,0.0673-0.0103,0.1202-0.0304,0.1572c-0.0201,0.0376-0.0483,0.0584-0.0835,0.0638           c-0.0358,0.0056-0.0763-0.0049-0.1214-0.031c-0.0451-0.0261-0.0855-0.0622-0.1212-0.1091           c-0.0351-0.0459-0.0625-0.0989-0.0829-0.1599c-0.0198-0.06-0.0296-0.1244-0.0294-0.1917           c0.0002-0.0673,0.0103-0.1202,0.0304-0.1572c0.0207-0.0373,0.0483-0.0584,0.0835-0.0638           c0.0358-0.0056,0.0763,0.0049,0.1214,0.031c0.0451,0.0261,0.0855,0.0622,0.1212,0.1091           C19.0776,28.9622,19.1056,29.0155,19.1254,29.0761z M18.9985,29.3307c0.0194-0.0218,0.029-0.0676,0.0292-0.1363           c0.0002-0.0687-0.009-0.1253-0.0283-0.1695c-0.0187-0.0438-0.045-0.0752-0.0784-0.0945           c-0.0328-0.019-0.0587-0.0177-0.0781,0.0042c-0.0188,0.0222-0.0284,0.0679-0.0286,0.1366           c-0.0002,0.0687,0.009,0.1253,0.0277,0.1691c0.0193,0.0435,0.045,0.0752,0.0778,0.0942           C18.9532,29.3538,18.9796,29.3522,18.9985,29.3307" fill="#FFFFFF"/></g><g><path d="M19.6559,29.3824c0.0198,0.06,0.0296,0.1244,0.0294,0.1917           c-0.0002,0.0673-0.0103,0.1202-0.0304,0.1572c-0.0201,0.0376-0.0483,0.0584-0.0835,0.0638           c-0.0352,0.0059-0.0757-0.0046-0.1214-0.031c-0.0451-0.0261-0.0855-0.0622-0.1206-0.1088           c-0.0357-0.0463-0.0631-0.0992-0.0829-0.1599c-0.0198-0.06-0.0302-0.1247-0.03-0.192s0.0109-0.1199,0.031-0.1568           c0.0201-0.0376,0.0477-0.0588,0.0835-0.0638c0.0352-0.0059,0.0757,0.0046,0.1209,0.0306           c0.0457,0.0264,0.0861,0.0626,0.1212,0.1091C19.6081,29.2684,19.6361,29.3217,19.6559,29.3824z M19.5289,29.6369           c0.0194-0.0218,0.029-0.0676,0.0292-0.1363c0.0002-0.0687-0.009-0.1253-0.0283-0.1695           c-0.0187-0.0438-0.045-0.0752-0.0784-0.0945c-0.0328-0.0189-0.0587-0.0177-0.0775,0.0045           c-0.0194,0.0218-0.029,0.0676-0.0292,0.1363c-0.0002,0.0687,0.009,0.1253,0.0283,0.1695           c0.0187,0.0432,0.0444,0.0749,0.0772,0.0939C19.4837,29.6601,19.5101,29.6584,19.5289,29.6369" fill="#FFFFFF"/></g></g></g><g><polygon fill="#474B59" points="20.5706,29.7996 20.5715,30.1414 21.5443,29.5797 21.5434,29.2379        "/></g><g><g><path d="M22.1629,32.0668c-0.0174-0.6047-0.1419-1.201-0.3605-1.7621h-0.1239          c0.2241,0.5609,0.3517,1.1589,0.3692,1.7654c0.0057,0.2003-0.001,0.4105-0.0885,0.5912          c-0.0738,0.1524-0.2424,0.3097-0.4396,0.2949c-0.0357-0.0027-0.0596,0.0215-0.0618,0.0531          c-0.0024,0.0317,0.0215,0.0594,0.0531,0.0618c0.012,0.0009,0.0239,0.0013,0.0357,0.0013          c0.2357,0,0.4276-0.1774,0.5164-0.3609C22.1611,32.5086,22.1691,32.2817,22.1629,32.0668z" fill="#363A44"/></g><g><path d="M21.8862,32.2226c-0.0168-0.5826-0.1322-1.1578-0.336-1.7009h-0.124          c0.209,0.5431,0.3279,1.1197,0.3448,1.7042c0.0057,0.2002-0.0011,0.4105-0.0885,0.5912          c-0.0738,0.1524-0.2424,0.3097-0.4396,0.2949c-0.0357-0.0027-0.0596,0.0215-0.0618,0.0531          c-0.0024,0.0317,0.0214,0.0594,0.0531,0.0618c0.012,0.0009,0.0239,0.0014,0.0357,0.0014          c0.2357,0,0.4276-0.1775,0.5164-0.361C21.8844,32.6643,21.8924,32.4375,21.8862,32.2226z" fill="#65AA65"/></g><g><path d="M21.6095,32.3784c-0.0146-0.5077-0.1057-1.0094-0.263-1.4896h-0.1211          c0.1613,0.4805,0.2543,0.9836,0.2689,1.4929c0.0057,0.2003-0.001,0.4105-0.0885,0.5912          c-0.0738,0.1525-0.2424,0.3097-0.4396,0.295c-0.0357-0.0028-0.0596,0.0215-0.0618,0.053          c-0.0024,0.0318,0.0214,0.0594,0.0531,0.0618c0.012,0.0009,0.0239,0.0014,0.0357,0.0014          c0.2357,0,0.4276-0.1774,0.5164-0.361C21.6077,32.8201,21.6157,32.5933,21.6095,32.3784z" fill="#3C5DD6"/></g></g></g><path d="M20.2801,28.6589c-0.0337,0-0.0669-0.0074-0.0884-0.0199l-2.8779-1.6616l1.3538-0.7893       c0.0217-0.0126,0.0537-0.0198,0.0877-0.0198c0.0339,0,0.0669,0.0074,0.0884,0.0199l2.8779,1.6616l-1.3538,0.7893       C20.3461,28.6517,20.3141,28.6589,20.2801,28.6589z" fill="#EFAC41"/></g></g><g><g><g enable-background="new    "><g><path d="M41.4247,28.1472v1.1949c0,0.3888-0.2566,0.7772-0.7698,1.0779c-1.0337,0.601-2.7126,0.601-3.7537,0         l-9.978-5.7624c-0.5279-0.3007-0.7845-0.6966-0.7845-1.0926v-1.1949c0,0.3959,0.2639,0.7918,0.7845,1.0922l9.978,5.7624         c1.041,0.6014,2.72,0.6014,3.7537,0C41.1681,28.9243,41.4247,28.5356,41.4247,28.1472z" fill="#CAD0DD"/></g><g><path d="M40.6427,27.0524c1.0391,0.6,1.0448,1.5727,0.0124,2.1727c-1.0324,0.6-2.7121,0.6-3.7513,0.0001         l-9.9796-5.7617c-1.0391-0.6-1.0446-1.5729-0.0121-2.1729s2.7119-0.5999,3.751,0.0001L40.6427,27.0524z" fill="#E4E8F4"/></g></g></g><g><g><g><g enable-background="new    "><g><polygon fill="#30596D" points="30.795,22.0218 30.7936,23.1456 29.7917,23.7278 29.7931,22.604          "/></g><g><polygon fill="#37617B" points="29.7931,22.604 29.7917,23.7278 28.7832,23.1455 28.7846,22.0218          "/></g><g><polygon fill="#416E84" points="30.795,22.0218 29.7931,22.604 28.7846,22.0218 29.7864,21.4395          "/></g></g></g><g><g enable-background="new    "><g><polygon fill="#30596D" points="30.795,20.6792 30.7936,21.8029 29.7917,22.3852 29.7931,21.2614          "/></g><g><polygon fill="#37617B" points="29.7931,21.2614 29.7917,22.3852 28.7832,21.8029 28.7846,20.6791          "/></g><g><polygon fill="#416E84" points="30.795,20.6792 29.7931,21.2614 28.7846,20.6791 29.7864,20.0969          "/></g></g></g><g><g enable-background="new    "><g><polygon fill="#30596D" points="30.795,19.3366 30.7936,20.4603 29.7917,21.0425 29.7931,19.9188          "/></g><g><polygon fill="#37617B" points="29.7931,19.9188 29.7917,21.0425 28.7832,20.4603 28.7846,19.3365          "/></g><g><polygon fill="#416E84" points="30.795,19.3366 29.7931,19.9188 28.7846,19.3365 29.7864,18.7543          "/></g></g></g><g><g enable-background="new    "><g><polygon fill="#30596D" points="30.795,17.994 30.7936,19.1177 29.7917,19.6999 29.7931,18.5762          "/></g><g><polygon fill="#37617B" points="29.7931,18.5762 29.7917,19.6999 28.7832,19.1177 28.7846,17.9939          "/></g><g><polygon fill="#416E84" points="30.795,17.994 29.7931,18.5762 28.7846,17.9939 29.7864,17.4117          "/></g></g></g><g><g enable-background="new    "><g><polygon fill="#30596D" points="30.795,16.6514 30.7936,17.7751 29.7917,18.3573 29.7931,17.2336          "/></g><g><polygon fill="#37617B" points="29.7931,17.2336 29.7917,18.3573 28.7832,17.7751 28.7846,16.6513          "/></g><g><polygon fill="#416E84" points="30.795,16.6514 29.7931,17.2336 28.7846,16.6513 29.7864,16.0691          "/></g></g></g><g><g enable-background="new    "><g><polygon fill="#30596D" points="30.795,15.3088 30.7936,16.4325 29.7917,17.0147 29.7931,15.891          "/></g><g><polygon fill="#37617B" points="29.7931,15.891 29.7917,17.0147 28.7832,16.4324 28.7846,15.3087          "/></g><g><polygon fill="#416E84" points="30.795,15.3088 29.7931,15.891 28.7846,15.3087 29.7864,14.7265          "/></g></g></g><g><g enable-background="new    "><g><polygon fill="#30596D" points="30.795,13.9662 30.7936,15.0899 29.7917,15.6721 29.7931,14.5484          "/></g><g><polygon fill="#37617B" points="29.7931,14.5484 29.7917,15.6721 28.7832,15.0898 28.7846,13.9661          "/></g><g><polygon fill="#416E84" points="30.795,13.9662 29.7931,14.5484 28.7846,13.9661 29.7864,13.3839          "/></g></g></g><g><g enable-background="new    "><g><polygon fill="#30596D" points="30.795,12.6236 30.7936,13.7473 29.7917,14.3295 29.7931,13.2058          "/></g><g><polygon fill="#37617B" points="29.7931,13.2058 29.7917,14.3295 28.7832,13.7472 28.7846,12.6235          "/></g><g><polygon fill="#416E84" points="30.795,12.6236 29.7931,13.2058 28.7846,12.6235 29.7864,12.0413          "/></g></g></g><g><g enable-background="new    "><g><polygon fill="#30596D" points="30.795,11.2809 30.7936,12.4047 29.7917,12.9869 29.7931,11.8632          "/></g><g><polygon fill="#37617B" points="29.7931,11.8632 29.7917,12.9869 28.7832,12.4046 28.7846,11.2809          "/></g><g><polygon fill="#416E84" points="30.795,11.2809 29.7931,11.8632 28.7846,11.2809 29.7864,10.6987          "/></g></g></g></g><g><g><g enable-background="new    "><g><polygon fill="#30596D" points="38.9229,26.6562 38.9215,27.7799 37.9197,28.3621 37.9211,27.2384          "/></g><g><polygon fill="#37617B" points="37.9211,27.2384 37.9197,28.3621 36.9111,27.7798 36.9125,26.6561          "/></g><g><polygon fill="#416E84" points="38.9229,26.6562 37.9211,27.2384 36.9125,26.6561 37.9144,26.0739          "/></g></g></g><g><g enable-background="new    "><g><polygon fill="#30596D" points="38.9229,25.3136 38.9215,26.4373 37.9197,27.0195 37.9211,25.8958          "/></g><g><polygon fill="#37617B" points="37.9211,25.8958 37.9197,27.0195 36.9111,26.4372 36.9125,25.3135          "/></g><g><polygon fill="#416E84" points="38.9229,25.3136 37.9211,25.8958 36.9125,25.3135 37.9144,24.7313          "/></g></g></g><g><g enable-background="new    "><g><polygon fill="#30596D" points="38.9229,23.971 38.9215,25.0947 37.9197,25.6769 37.9211,24.5532          "/></g><g><polygon fill="#37617B" points="37.9211,24.5532 37.9197,25.6769 36.9111,25.0946 36.9125,23.9709          "/></g><g><polygon fill="#416E84" points="38.9229,23.971 37.9211,24.5532 36.9125,23.9709 37.9144,23.3887          "/></g></g></g><g><g enable-background="new    "><g><polygon fill="#30596D" points="38.9229,22.6283 38.9215,23.7521 37.9197,24.3343 37.9211,23.2106          "/></g><g><polygon fill="#37617B" points="37.9211,23.2106 37.9197,24.3343 36.9111,23.752 36.9125,22.6283          "/></g><g><polygon fill="#416E84" points="38.9229,22.6283 37.9211,23.2106 36.9125,22.6283 37.9144,22.0461          "/></g></g></g><g><g enable-background="new    "><g><polygon fill="#30596D" points="38.9229,21.2857 38.9215,22.4095 37.9197,22.9917 37.9211,21.8679          "/></g><g><polygon fill="#37617B" points="37.9211,21.8679 37.9197,22.9917 36.9111,22.4094 36.9125,21.2857          "/></g><g><polygon fill="#416E84" points="38.9229,21.2857 37.9211,21.8679 36.9125,21.2857 37.9144,20.7035          "/></g></g></g><g><g enable-background="new    "><g><polygon fill="#30596D" points="38.9229,19.9431 38.9215,21.0669 37.9197,21.6491 37.9211,20.5253          "/></g><g><polygon fill="#37617B" points="37.9211,20.5253 37.9197,21.6491 36.9111,21.0668 36.9125,19.9431          "/></g><g><polygon fill="#416E84" points="38.9229,19.9431 37.9211,20.5253 36.9125,19.9431 37.9144,19.3609          "/></g></g></g><g><g enable-background="new    "><g><polygon fill="#30596D" points="38.9229,18.6005 38.9215,19.7243 37.9197,20.3065 37.9211,19.1827          "/></g><g><polygon fill="#37617B" points="37.9211,19.1827 37.9197,20.3065 36.9111,19.7242 36.9125,18.6005          "/></g><g><polygon fill="#416E84" points="38.9229,18.6005 37.9211,19.1827 36.9125,18.6005 37.9144,18.0182          "/></g></g></g><g><g enable-background="new    "><g><polygon fill="#30596D" points="38.9229,17.2579 38.9215,18.3816 37.9197,18.9639 37.9211,17.8401          "/></g><g><polygon fill="#37617B" points="37.9211,17.8401 37.9197,18.9639 36.9111,18.3816 36.9125,17.2578          "/></g><g><polygon fill="#416E84" points="38.9229,17.2579 37.9211,17.8401 36.9125,17.2578 37.9144,16.6756          "/></g></g></g><g><g enable-background="new    "><g><polygon fill="#30596D" points="38.9229,15.9153 38.9215,17.039 37.9197,17.6212 37.9211,16.4975          "/></g><g><polygon fill="#37617B" points="37.9211,16.4975 37.9197,17.6212 36.9111,17.039 36.9125,15.9152          "/></g><g><polygon fill="#416E84" points="38.9229,15.9153 37.9211,16.4975 36.9125,15.9152 37.9144,15.333          "/></g></g></g></g></g><g><g><g><g><g enable-background="new    "><g><path d="M36.3785,25.4558l-0.0011,0.4873c0,0.0433-0.0285,0.0877-0.0865,0.1218l-1.3564,0.7881            c-0.1162,0.0672-0.3075,0.0672-0.4248,0l-2.8779-1.6627c-0.0592-0.0341-0.0888-0.0786-0.0888-0.1229l0.0011-0.4873            c0,0.0444,0.0296,0.09,0.0877,0.1241l2.879,1.6616c0.1173,0.0672,0.3086,0.0672,0.4248,0l1.3564-0.7881            C36.3489,25.5447,36.3785,25.5002,36.3785,25.4558z" fill="#474B59"/></g><g><path d="M36.2901,25.3319c0.1171,0.0676,0.1177,0.1784,0.0014,0.246l-1.3559,0.788            c-0.1163,0.0676-0.3077,0.0676-0.4247,0l-2.8786-1.662c-0.1171-0.0676-0.1177-0.1784-0.0014-0.246l1.3559-0.788            c0.1163-0.0676,0.3076-0.0676,0.4247,0L36.2901,25.3319z" fill="#5B5E71"/></g></g></g><g><g enable-background="new    "><g><path d="M34.5905,21.1338l-2.8779-1.6627c-0.0376-0.0206-0.0558-0.049-0.0558-0.0764v5.1428            c0,0.0285,0.0182,0.0559,0.0547,0.0775l2.879,1.6616c0.0287,0.0169,0.0654,0.0251,0.1031,0.0284l0.0011-5.1428            C34.6568,21.1589,34.6197,21.1507,34.5905,21.1338z" fill="#F9BB4A"/><path d="M36.2099,20.3457l-1.3552,0.7881c-0.0437,0.0252-0.1032,0.0335-0.16,0.0284l-0.0011,5.1428            c0.0566,0.005,0.1162-0.0032,0.16-0.0284l1.3552-0.7869c0.0364-0.0217,0.0547-0.049,0.0547-0.0763l0.0011-5.1429            C36.2635,20.2979,36.2464,20.3253,36.2099,20.3457z" fill="#EFAC41"/></g><g><path d="M36.209,20.1931c0.0727,0.042,0.0738,0.1104,0.0008,0.1528l-1.3552,0.7875            c-0.073,0.0424-0.1911,0.042-0.2638,0l-2.8787-1.662c-0.0727-0.042-0.0738-0.1104-0.0008-0.1528l1.3552-0.7875            c0.073-0.0424,0.1911-0.042,0.2638,0L36.209,20.1931z" fill="#FED57A"/></g></g></g></g><g><path d="M34.2607,21.2996c0.072,0.0416,0.13,0.1421,0.1298,0.2241l-0.0038,1.3416         c-0.0002,0.0827-0.0586,0.116-0.1306,0.0745l-2.3212-1.3402c-0.0714-0.0412-0.13-0.1421-0.1298-0.2248l0.0038-1.3416         c0.0002-0.082,0.0593-0.1149,0.1306-0.0737L34.2607,21.2996z" fill="#576CFB"/></g><g><path d="M34.2607,21.2996c0.072,0.0416,0.13,0.1421,0.1298,0.2241l-0.0038,1.3416         c-0.0002,0.0827-0.0586,0.116-0.1306,0.0745l-2.3212-1.3402c-0.0714-0.0412-0.13-0.1421-0.1298-0.2248l0.0038-1.3416         c0.0002-0.082,0.0593-0.1149,0.1306-0.0737L34.2607,21.2996z" fill="#37617B"/></g><g><g><path d="M31.9993,21.8659c0.0843,0.0487,0.1528,0.1673,0.1525,0.2642          c-0.0003,0.0969-0.0692,0.1351-0.1535,0.0864c-0.0844-0.0487-0.1528-0.1661-0.1525-0.263          C31.846,21.8565,31.9149,21.8172,31.9993,21.8659z" fill="#E63044"/></g><g><path d="M32.4554,22.1292c0.0844,0.0487,0.1518,0.1667,0.1515,0.2636          c-0.0003,0.0969-0.0682,0.1356-0.1525,0.0869c-0.0844-0.0487-0.1528-0.1661-0.1525-0.263          C32.3021,22.1198,32.371,22.0805,32.4554,22.1292z" fill="#E63044"/></g><g><path d="M32.9105,22.392c0.0844,0.0487,0.1528,0.1673,0.1525,0.2642s-0.0692,0.1351-0.1535,0.0864          s-0.1518-0.1656-0.1515-0.2625S32.8261,22.3433,32.9105,22.392z" fill="#E63044"/></g></g><g><g><g><path d="M32.5068,20.8819c0.0198,0.06,0.0296,0.1244,0.0294,0.1917           c-0.0002,0.0673-0.0103,0.1202-0.0304,0.1572c-0.0201,0.0376-0.0477,0.0588-0.0835,0.0638           c-0.0352,0.0059-0.0757-0.0046-0.1209-0.0306c-0.0457-0.0264-0.0861-0.0626-0.1212-0.1091           c-0.0357-0.0463-0.0631-0.0992-0.0829-0.1599c-0.0198-0.06-0.0302-0.1247-0.03-0.192s0.0109-0.1199,0.031-0.1568           c0.0201-0.0376,0.0477-0.0588,0.0835-0.0638c0.0352-0.0059,0.0757,0.0046,0.1214,0.031           c0.0451,0.0261,0.0855,0.0622,0.1206,0.1088C32.4596,20.7683,32.487,20.8213,32.5068,20.8819z M32.3805,21.1368           c0.0188-0.0222,0.0284-0.0679,0.0286-0.1366s-0.009-0.1253-0.0277-0.1691c-0.0192-0.0442-0.0456-0.0756-0.0784-0.0945           c-0.0328-0.0189-0.0592-0.018-0.0781,0.0042c-0.0194,0.0218-0.029,0.0676-0.0292,0.1363s0.009,0.1253,0.0283,0.1695           c0.0187,0.0432,0.045,0.0752,0.0778,0.0942C32.3346,21.1596,32.361,21.158,32.3805,21.1368" fill="#FFFFFF"/></g><g><path d="M33.0373,21.1882c0.0204,0.0603,0.0302,0.1247,0.03,0.192s-0.0103,0.1202-0.031,0.1568           c-0.0201,0.0376-0.0477,0.0588-0.0835,0.0638c-0.0352,0.0059-0.0757-0.0046-0.1209-0.0306           c-0.0457-0.0264-0.0855-0.0622-0.1212-0.1091c-0.0351-0.0459-0.0631-0.0992-0.0829-0.1599           c-0.0198-0.06-0.0296-0.1244-0.0294-0.1917s0.0103-0.1202,0.0304-0.1572c0.0201-0.0376,0.0483-0.0584,0.0835-0.0638           c0.0358-0.0056,0.0757,0.0046,0.1214,0.031c0.0451,0.0261,0.0855,0.0622,0.1206,0.1088           C32.9901,21.0746,33.0175,21.1275,33.0373,21.1882z M32.9109,21.4431c0.0189-0.0222,0.0284-0.0679,0.0286-0.1366           s-0.009-0.1253-0.0277-0.1691c-0.0192-0.0442-0.045-0.0752-0.0784-0.0945c-0.0328-0.0189-0.0587-0.0177-0.0781,0.0042           c-0.0189,0.0222-0.029,0.0676-0.0292,0.1363s0.0096,0.1256,0.0283,0.1695c0.0193,0.0435,0.045,0.0752,0.0778,0.0942           C32.8657,21.4662,32.8915,21.4643,32.9109,21.4431" fill="#FFFFFF"/></g><g><path d="M33.5683,21.4948c0.0198,0.06,0.0296,0.1244,0.0294,0.1917s-0.0103,0.1202-0.0304,0.1572           c-0.0201,0.0376-0.0483,0.0584-0.0835,0.0638c-0.0358,0.0056-0.0763-0.0049-0.1214-0.031           c-0.0451-0.0261-0.0855-0.0622-0.1212-0.1091c-0.0351-0.0459-0.0625-0.0989-0.0829-0.1599           c-0.0198-0.06-0.0296-0.1244-0.0294-0.1917s0.0103-0.1202,0.0304-0.1572c0.0207-0.0373,0.0483-0.0584,0.0835-0.0638           c0.0358-0.0056,0.0763,0.0049,0.1214,0.031c0.0451,0.0261,0.0855,0.0622,0.1212,0.1091           C33.5205,21.3808,33.5485,21.4341,33.5683,21.4948z M33.4414,21.7493c0.0194-0.0218,0.029-0.0676,0.0292-0.1363           c0.0002-0.0687-0.009-0.1253-0.0283-0.1695c-0.0187-0.0438-0.045-0.0752-0.0784-0.0945           c-0.0328-0.019-0.0587-0.0177-0.0781,0.0042c-0.0188,0.0222-0.0284,0.0679-0.0286,0.1366           c-0.0002,0.0687,0.009,0.1253,0.0277,0.1691c0.0192,0.0435,0.045,0.0752,0.0778,0.0942           C33.3961,21.7725,33.4225,21.7709,33.4414,21.7493" fill="#FFFFFF"/></g><g><path d="M34.0988,21.801c0.0198,0.06,0.0296,0.1244,0.0294,0.1917           c-0.0002,0.0673-0.0103,0.1202-0.0304,0.1572c-0.0201,0.0376-0.0483,0.0584-0.0835,0.0638           c-0.0352,0.0059-0.0757-0.0046-0.1214-0.031c-0.0451-0.0261-0.0855-0.0622-0.1206-0.1088           c-0.0357-0.0463-0.0631-0.0992-0.0829-0.1599c-0.0198-0.06-0.0302-0.1247-0.03-0.192           c0.0002-0.0673,0.0109-0.1199,0.031-0.1568c0.0201-0.0376,0.0477-0.0588,0.0835-0.0638           c0.0352-0.0059,0.0757,0.0046,0.1209,0.0306c0.0457,0.0264,0.0861,0.0626,0.1212,0.1091           C34.0509,21.6871,34.079,21.7404,34.0988,21.801z M33.9718,22.0556c0.0194-0.0218,0.029-0.0676,0.0292-0.1363           s-0.009-0.1253-0.0283-0.1695c-0.0187-0.0438-0.045-0.0752-0.0784-0.0945c-0.0328-0.019-0.0587-0.0177-0.0775,0.0045           c-0.0194,0.0218-0.029,0.0676-0.0292,0.1363s0.009,0.1253,0.0283,0.1695c0.0187,0.0432,0.0444,0.0749,0.0772,0.0939           C33.9265,22.0787,33.953,22.0771,33.9718,22.0556" fill="#FFFFFF"/></g></g></g><g><polygon fill="#474B59" points="35.0135,22.2182 35.0144,22.56 35.9872,21.9984 35.9863,21.6566        "/></g><g><g><path d="M36.6058,24.4855c-0.0174-0.6047-0.1419-1.201-0.3605-1.7621h-0.124          c0.2241,0.5609,0.3517,1.1589,0.3692,1.7654c0.0057,0.2003-0.001,0.4105-0.0885,0.5912          c-0.0738,0.1524-0.2424,0.3097-0.4396,0.2949c-0.0357-0.0027-0.0596,0.0215-0.0618,0.0531          c-0.0024,0.0317,0.0215,0.0594,0.0531,0.0618c0.012,0.0009,0.0239,0.0013,0.0357,0.0013          c0.2357,0,0.4276-0.1774,0.5164-0.3609C36.604,24.9272,36.612,24.7004,36.6058,24.4855z" fill="#363A44"/></g><g><path d="M36.3291,24.6413c-0.0168-0.5826-0.1322-1.1578-0.336-1.7009h-0.124          c0.209,0.5431,0.3279,1.1197,0.3448,1.7042c0.0057,0.2002-0.0011,0.4105-0.0885,0.5912          c-0.0738,0.1524-0.2424,0.3097-0.4396,0.2949c-0.0357-0.0027-0.0596,0.0215-0.0618,0.0531          c-0.0024,0.0317,0.0215,0.0594,0.0531,0.0618c0.012,0.0009,0.0239,0.0014,0.0357,0.0014          c0.2357,0,0.4276-0.1775,0.5164-0.361C36.3273,25.083,36.3353,24.8562,36.3291,24.6413z" fill="#65AA65"/></g><g><path d="M36.0524,24.797c-0.0146-0.5077-0.1057-1.0094-0.263-1.4896h-0.1211          c0.1613,0.4805,0.2543,0.9836,0.269,1.4929c0.0057,0.2003-0.001,0.4105-0.0885,0.5912          c-0.0738,0.1525-0.2424,0.3097-0.4396,0.295c-0.0357-0.0028-0.0596,0.0215-0.0618,0.053          c-0.0024,0.0318,0.0214,0.0594,0.0531,0.0618c0.012,0.0009,0.0239,0.0014,0.0357,0.0014          c0.2357,0,0.4276-0.1774,0.5164-0.361C36.0506,25.2388,36.0586,25.0119,36.0524,24.797z" fill="#3C5DD6"/></g></g></g><path d="M34.723,21.0776c-0.0337,0-0.0669-0.0074-0.0884-0.0199l-2.8779-1.6616l1.3538-0.7893       c0.0217-0.0126,0.0537-0.0198,0.0877-0.0198c0.0339,0,0.0669,0.0074,0.0884,0.0199l2.8779,1.6616l-1.3538,0.7893       C34.789,21.0704,34.757,21.0776,34.723,21.0776z" fill="#EFAC41"/></g></g><g><g><g enable-background="new    "><g><polygon fill="#F34858" points="4.4886,18.4255 4.4898,20.3233 18.7845,28.6305 18.7833,26.7327        "/></g><g><polygon fill="#E63044" points="18.7833,26.7327 18.7845,28.6305 45.9982,12.9187 45.9969,11.0209        "/></g><g><polygon fill="#F9607F" points="4.4886,18.4255 18.7833,26.7327 45.9969,11.0209 31.7022,2.7137        "/><polygon fill="#D4DAE8" points="6.9492,18.9229 31.6993,4.6327 43.5348,11.5079 18.7847,25.7981        "/></g></g></g><g><polygon fill="#F34858" points="44.3848,11.0185 43.5348,11.5079 31.6993,4.6327 31.6993,3.6481      "/><polygon fill="#E63044" points="31.6993,3.6481 31.6993,4.6327 6.9492,18.9229 6.0993,18.428      "/></g></g></g></g></g></svg>